<?xml version="1.0" standalone="no"?>
<!DOCTYPE svg PUBLIC "-//W3C//DTD SVG 20010904//EN"
 "http://www.w3.org/TR/2001/REC-SVG-20010904/DTD/svg10.dtd">
<svg version="1.0" xmlns="http://www.w3.org/2000/svg"
 width="2819.000000pt" height="2819.000000pt" viewBox="0 0 2819.000000 2819.000000"
 preserveAspectRatio="xMidYMid meet">
<metadata>
Created by potrace 1.14, written by Peter Selinger 2001-2017
</metadata>
<g transform="translate(0.000000,2819.000000) scale(0.100000,-0.100000)"
fill="#000000" stroke="none">
<path d="M7310 21423 l-3185 -3 -2055 -3623 c-1130 -1992 -2055 -3629 -2054
-3638 0 -9 922 -1677 2050 -3707 l2049 -3692 10086 0 10086 0 1942 3680 c1069
2024 1945 3688 1947 3697 3 11 -800 1504 -1964 3653 l-1969 3635 -6874 0
c-3781 0 -8307 -1 -10059 -2z m16422 -842 c3 -3 779 -1448 1723 -3211 l1716
-3205 -34 -70 c-19 -38 -789 -1505 -1711 -3260 l-1675 -3190 -5168 -6 c-2842
-3 -7139 -7 -9549 -8 l-4380 -1 -1812 3258 c-996 1791 -1812 3262 -1814 3267
-2 8 2477 4443 3560 6368 l44 79 9547 -7 c5250 -4 9549 -10 9553 -14z"/>
<path d="M9870 18911 l0 -69 113 -27 c61 -15 120 -29 130 -32 16 -4 17 -65 17
-1103 l0 -1099 -37 -10 c-21 -6 -77 -20 -125 -32 l-88 -21 0 -69 0 -69 415 0
415 0 0 69 0 69 -87 21 c-49 12 -105 26 -125 32 l-38 10 0 1199 0 1200 -295 0
-295 0 0 -69z"/>
<path d="M4052 18708 l3 -73 138 -35 137 -35 0 -985 0 -985 -137 -35 -138 -35
-3 -72 -3 -73 376 0 376 0 -3 73 -3 72 -122 35 -123 35 0 974 c0 536 2 972 4
970 2 -2 138 -425 301 -939 164 -514 318 -999 343 -1077 l45 -143 198 0 197 0
11 33 c5 17 123 392 262 832 384 1220 399 1269 403 1280 3 6 5 -427 5 -961 l1
-972 -120 -33 -120 -34 0 -72 0 -73 430 0 431 0 -3 72 -3 72 -137 34 -138 34
0 987 0 987 140 34 140 34 0 73 0 73 -393 0 -392 0 -174 -567 c-95 -313 -238
-782 -318 -1043 -80 -261 -149 -479 -153 -484 -5 -4 -13 7 -18 25 -19 65 -587
1895 -623 2007 l-21 62 -399 0 -400 0 3 -72z"/>
<path d="M9275 18625 c-38 -7 -91 -16 -116 -19 l-45 -7 -21 -205 c-12 -113
-24 -208 -26 -210 -2 -3 -75 -15 -161 -27 l-156 -22 0 -62 0 -63 160 0 159 0
3 -742 c3 -691 4 -746 21 -790 23 -58 83 -114 133 -124 89 -16 258 13 467 82
l77 26 0 48 0 49 -165 3 c-142 3 -167 5 -182 21 -17 17 -18 62 -21 722 l-2
705 210 0 210 0 0 85 0 85 -210 0 -210 0 0 230 0 230 -27 -1 c-16 -1 -59 -7
-98 -14z"/>
<path d="M14664 18210 c-102 -15 -201 -76 -282 -173 -44 -54 -121 -194 -142
-260 -6 -21 -15 -35 -18 -32 -4 4 -23 102 -42 218 l-36 212 -242 3 -242 2 0
-69 0 -69 130 -32 130 -32 0 -698 0 -698 -130 -32 -130 -32 0 -69 0 -69 470 0
470 0 0 70 c0 39 -1 70 -2 70 -2 0 -79 14 -173 30 -93 16 -174 30 -179 30 -4
0 -6 176 -3 393 6 419 11 474 63 647 32 105 78 197 137 275 63 82 102 107 163
103 l49 -3 -3 -76 c-6 -127 40 -199 140 -217 117 -21 202 35 228 153 11 48 6
127 -10 170 -7 19 -1 18 94 -14 l102 -35 344 -809 344 -809 -33 -101 c-41
-125 -108 -270 -146 -316 -34 -39 -80 -61 -129 -61 -72 0 -113 35 -81 70 22
25 55 114 55 150 0 74 -58 143 -130 155 -131 22 -232 -70 -232 -211 0 -151
130 -271 317 -292 212 -25 352 59 465 279 69 135 122 272 446 1162 156 430
290 784 297 787 6 2 53 18 102 35 l90 30 3 68 3 67 -321 0 -320 0 0 -69 0 -69
95 -32 c52 -17 95 -32 95 -33 -2 -25 -418 -1289 -424 -1289 -11 1 -500 1281
-492 1289 2 3 53 18 112 34 58 15 109 30 111 32 2 3 -2 34 -8 71 l-12 66 -379
0 -378 0 0 -62 0 -62 -27 37 c-71 93 -182 135 -309 117z"/>
<path d="M7680 18195 c-219 -44 -386 -159 -440 -302 -28 -74 -24 -182 8 -235
63 -102 243 -106 313 -6 48 67 29 207 -36 268 -24 23 -24 23 -5 49 27 39 106
78 180 90 167 27 321 -43 389 -177 34 -66 60 -194 85 -418 l6 -50 -129 -23
c-173 -30 -376 -81 -487 -123 -181 -68 -333 -177 -383 -275 -94 -185 -55 -434
86 -549 77 -63 147 -86 280 -92 140 -6 234 13 358 73 121 59 199 126 302 261
l22 29 1 -50 c2 -158 37 -272 89 -299 62 -33 222 -12 389 49 l72 27 0 49 0 49
-82 0 c-106 0 -147 18 -167 75 -11 31 -16 147 -22 505 -7 488 -11 528 -60 680
-68 213 -216 353 -417 395 -82 18 -264 18 -352 0z m505 -991 c18 -259 -30
-425 -157 -539 -101 -91 -261 -141 -370 -117 -101 23 -158 93 -179 220 -13 81
0 180 32 243 60 118 225 203 531 274 57 13 110 24 120 24 13 1 17 -16 23 -105z"/>
<path d="M10830 18110 l0 -69 43 -11 c23 -6 72 -20 110 -31 64 -19 67 -21 68
-52 0 -18 4 -270 9 -562 5 -291 14 -556 20 -587 42 -231 131 -354 299 -419 80
-31 255 -38 354 -14 178 43 358 171 444 315 9 17 20 30 24 30 8 0 14 -45 30
-222 l13 -138 40 0 c23 0 136 7 251 15 116 8 213 15 218 15 4 0 7 31 7 69 l0
69 -87 21 c-49 12 -105 26 -125 32 l-38 10 0 799 0 800 -310 0 -310 0 0 -69 0
-69 78 -17 c42 -9 107 -24 145 -32 l67 -15 0 -477 c0 -512 -4 -559 -53 -664
-69 -148 -233 -248 -407 -249 -41 -1 -93 4 -116 11 -84 23 -156 96 -190 194
-26 74 -34 259 -34 825 l0 562 -275 0 -275 0 0 -70z"/>
<path d="M12994 10226 c-3 -8 -4 -25 -2 -38 2 -19 13 -25 66 -37 l62 -14 0
-542 0 -541 -62 -15 c-63 -14 -63 -14 -63 -49 l0 -35 205 0 205 0 0 35 c0 34
-1 35 -62 49 l-63 14 0 594 0 593 -140 0 c-113 0 -142 -3 -146 -14z"/>
<path d="M18952 10203 c3 -36 4 -37 63 -52 l60 -16 3 -220 c2 -121 0 -365 -3
-541 l-7 -322 -59 -12 -59 -13 0 -38 0 -39 205 0 205 0 0 39 0 38 -58 13 -59
12 -6 202 c-4 110 -7 378 -7 594 l0 392 -141 0 -140 0 3 -37z"/>
<path d="M14299 10181 c-39 -39 -41 -109 -5 -146 71 -71 179 -25 178 76 -1 91
-109 134 -173 70z"/>
<path d="M16539 10181 c-39 -39 -41 -109 -5 -146 71 -71 179 -25 179 76 0 90
-110 134 -174 70z"/>
<path d="M19520 10182 c-24 -24 -30 -39 -30 -72 0 -54 14 -79 56 -96 49 -21
108 -4 129 36 39 76 4 148 -77 157 -42 5 -50 3 -78 -25z"/>
<path d="M21755 10198 c-34 -19 -44 -41 -45 -90 0 -69 30 -101 95 -101 41 0
52 4 77 31 30 35 36 74 16 117 -21 47 -96 70 -143 43z"/>
<path d="M11032 10103 c3 -39 4 -39 96 -63 l42 -11 0 -483 0 -484 -71 -17 -70
-17 3 -37 3 -36 218 -3 217 -2 0 39 c0 34 -3 40 -27 45 -16 4 -45 12 -65 17
l-38 10 0 224 0 225 270 0 270 0 0 -224 0 -224 -27 -6 c-107 -26 -103 -24
-103 -67 l0 -39 218 2 217 3 3 32 c4 37 -7 44 -85 63 l-53 12 0 484 0 483 43
11 c91 24 92 24 92 61 l0 34 -217 3 -218 2 0 -38 0 -39 63 -14 62 -14 3 -213
2 -212 -270 0 -270 0 2 212 3 213 63 14 62 14 0 39 0 38 -221 0 -220 0 3 -37z"/>
<path d="M23005 10065 c-5 -2 -31 -6 -56 -10 l-46 -6 -7 -72 c-13 -136 -12
-134 -64 -142 -112 -15 -112 -15 -112 -46 l0 -29 80 0 80 0 0 -360 c0 -390 4
-423 55 -450 31 -17 110 -9 208 20 73 22 77 25 77 51 l0 29 -80 0 c-77 0 -81
1 -90 26 -6 14 -10 165 -10 355 l0 329 105 0 105 0 0 40 0 40 -105 0 -105 0 0
115 c0 115 -2 121 -35 110z"/>
<path d="M16313 9840 c-119 -56 -115 -55 -190 -18 -64 31 -73 33 -178 33 -98
0 -116 -3 -165 -26 -109 -52 -163 -134 -164 -249 -1 -107 44 -190 127 -232
l28 -14 -50 -31 c-61 -38 -83 -70 -89 -132 -4 -40 0 -51 24 -80 15 -19 41 -39
57 -46 l30 -12 -34 -7 c-88 -16 -139 -78 -139 -167 0 -77 26 -115 111 -157
130 -66 358 -67 493 -4 113 53 169 134 169 247 0 91 -35 145 -118 181 -32 14
-83 19 -245 24 -113 4 -206 8 -207 9 -2 0 -9 12 -18 24 -12 19 -13 30 -4 55
16 48 64 65 200 72 99 5 125 10 172 34 31 15 70 44 87 64 60 73 77 188 41 283
l-20 51 95 -7 c91 -7 94 -6 94 14 0 22 -1 22 80 1 l25 -6 3 -346 2 -345 -60
-13 -60 -13 0 -39 0 -38 203 2 202 3 0 35 c0 34 -1 35 -60 51 l-60 16 -3 391
-2 392 -135 0 c-128 0 -135 1 -135 20 0 27 -12 25 -107 -20z m-277 -79 c57
-26 84 -83 84 -177 0 -133 -55 -195 -173 -196 -119 -1 -175 50 -184 165 -9
105 25 184 91 213 45 19 134 17 182 -5z m85 -752 c71 -15 99 -45 99 -104 0
-67 -21 -99 -86 -131 -45 -22 -73 -28 -152 -32 -130 -6 -206 10 -249 53 -41
41 -50 78 -32 128 16 45 50 75 100 87 52 12 261 11 320 -1z"/>
<path d="M12497 9846 c-161 -45 -263 -202 -275 -422 -11 -231 57 -383 206
-452 51 -24 69 -27 167 -27 100 0 116 3 171 28 39 18 83 51 123 91 l63 63 -27
22 -28 21 -34 -30 c-18 -17 -57 -42 -86 -57 -70 -36 -190 -39 -254 -5 -76 40
-119 121 -130 245 l-6 67 287 0 286 0 0 73 c-1 183 -70 313 -199 370 -58 25
-196 32 -264 13z m162 -86 c81 -23 131 -113 131 -232 l0 -58 -200 0 c-159 0
-200 3 -200 13 0 40 25 137 45 177 28 55 52 78 102 96 46 16 77 17 122 4z"/>
<path d="M13687 9849 c-83 -20 -167 -82 -192 -144 -42 -101 -23 -207 50 -274
50 -46 85 -63 215 -106 47 -15 101 -36 121 -46 118 -59 120 -187 5 -240 -78
-35 -257 -18 -300 29 -15 17 -15 20 -1 32 22 18 45 64 45 90 0 12 -13 35 -29
51 -23 22 -39 29 -68 29 -113 0 -125 -184 -17 -266 115 -88 377 -85 502 5 105
77 131 229 55 330 -38 50 -103 86 -227 127 -146 48 -202 77 -221 114 -31 60
-10 141 47 175 46 27 165 33 222 11 61 -23 76 -42 48 -61 -11 -8 -25 -30 -32
-49 -30 -91 73 -154 141 -87 24 25 29 37 29 81 0 132 -112 212 -293 209 -34
-1 -79 -5 -100 -10z"/>
<path d="M15083 9845 c-65 -20 -127 -60 -171 -110 -22 -25 -42 -45 -45 -45 -2
0 -8 17 -11 38 -4 20 -12 54 -17 75 l-10 37 -119 0 -120 0 0 -33 c0 -33 1 -34
63 -48 l62 -14 0 -344 0 -344 -60 -16 c-59 -16 -60 -17 -60 -51 l0 -35 195 0
195 0 0 35 c0 33 -2 35 -52 50 l-53 15 0 238 c0 262 6 306 52 361 45 55 100
80 180 81 78 0 111 -19 143 -81 18 -36 20 -63 23 -319 l4 -280 -54 -15 c-51
-15 -53 -16 -53 -50 l0 -35 195 0 195 0 0 35 c0 34 -1 35 -60 51 l-60 16 -6
284 c-5 298 -14 363 -52 421 -58 85 -186 120 -304 83z"/>
<path d="M17323 9846 c-66 -21 -127 -61 -171 -111 -22 -25 -42 -45 -45 -45 -2
0 -8 17 -11 38 -4 20 -12 54 -17 75 l-10 37 -119 0 -120 0 0 -33 c0 -33 1 -34
63 -48 l62 -14 0 -344 0 -344 -60 -16 c-59 -16 -60 -17 -60 -51 l0 -35 195 0
195 0 0 35 c0 33 -2 35 -52 50 l-53 15 0 232 c0 128 5 254 10 281 22 101 108
166 222 167 78 0 111 -19 143 -81 18 -36 20 -63 23 -319 l4 -280 -54 -15 c-51
-15 -53 -16 -53 -50 l0 -35 195 0 195 0 0 35 c0 34 -1 35 -60 51 l-60 16 -6
294 c-5 237 -9 304 -23 346 -33 103 -103 154 -221 160 -42 1 -87 -3 -112 -11z"/>
<path d="M20110 9845 c-141 -40 -219 -129 -261 -296 -27 -106 -23 -271 9 -361
63 -177 188 -256 391 -246 158 8 247 62 311 188 45 88 61 162 61 275 1 284
-126 439 -371 451 -58 3 -103 -1 -140 -11z m215 -98 c88 -50 119 -141 120
-347 0 -223 -26 -303 -115 -347 -57 -29 -150 -31 -200 -4 -86 45 -124 156
-124 361 0 200 34 298 117 339 59 29 148 28 202 -2z"/>
<path d="M21090 9846 c-59 -15 -114 -50 -141 -87 -11 -16 -24 -29 -29 -29 -5
0 -12 25 -15 55 l-7 55 -119 0 -119 0 0 -34 c0 -33 1 -33 60 -46 l60 -13 0
-493 0 -493 -42 -11 c-24 -6 -51 -13 -60 -16 -13 -4 -18 -16 -18 -40 l0 -34
220 0 220 0 0 34 c0 34 -1 35 -57 46 -116 23 -103 1 -103 179 l1 156 20 -28
c89 -119 321 -122 453 -6 46 40 100 150 122 246 42 190 -24 431 -141 514 -74
53 -206 72 -305 45z m185 -110 c75 -57 112 -198 102 -386 -12 -221 -71 -303
-217 -304 -141 0 -204 92 -217 319 -11 197 32 339 117 383 65 34 162 28 215
-12z"/>
<path d="M22282 9845 c-70 -20 -101 -37 -139 -77 -45 -46 -63 -96 -63 -173 0
-136 67 -200 280 -270 161 -52 210 -92 210 -169 0 -85 -73 -135 -195 -136 -80
0 -138 14 -178 42 -28 20 -28 20 -9 42 50 55 54 96 13 137 -38 37 -88 39 -128
5 -25 -22 -28 -30 -28 -89 0 -89 30 -134 121 -178 58 -29 80 -34 162 -37 245
-11 386 85 387 265 0 63 -3 76 -30 115 -45 63 -109 101 -252 148 -71 24 -143
51 -161 62 -83 50 -83 181 1 224 48 26 167 31 221 10 64 -25 72 -38 41 -71
-30 -33 -34 -92 -7 -124 9 -12 33 -24 53 -27 104 -17 136 148 46 238 -18 17
-51 40 -75 50 -59 26 -199 33 -270 13z"/>
<path d="M23539 9847 c-143 -41 -237 -157 -271 -337 -16 -85 -5 -254 21 -320
70 -183 187 -257 394 -248 81 3 103 8 160 36 75 37 115 79 157 167 96 200 69
469 -61 610 -60 65 -142 98 -259 102 -58 2 -113 -2 -141 -10z m208 -97 c51
-22 95 -86 115 -163 8 -32 13 -108 13 -197 -1 -211 -32 -301 -119 -341 -55
-25 -150 -25 -196 0 -80 42 -120 159 -120 353 0 179 23 271 82 324 50 46 153
57 225 24z"/>
<path d="M14170 9806 c0 -33 2 -34 58 -48 l57 -14 3 -346 2 -345 -60 -13 -60
-13 0 -39 0 -38 203 2 202 3 0 35 c0 34 -1 35 -60 51 l-60 16 -3 391 -2 392
-140 0 -140 0 0 -34z"/>
<path d="M18050 9806 c0 -31 3 -34 45 -46 32 -9 50 -21 59 -39 8 -14 85 -194
171 -400 l157 -375 -17 -55 c-45 -145 -106 -209 -163 -172 -12 7 -11 14 2 39
37 72 7 137 -63 137 -78 0 -122 -82 -86 -159 27 -57 93 -91 176 -91 55 0 72 5
107 28 73 48 104 115 304 677 155 434 137 394 192 410 43 12 46 15 46 46 l0
34 -155 0 -155 0 0 -34 c0 -31 3 -34 45 -46 25 -7 45 -18 45 -25 0 -18 -190
-608 -199 -618 -6 -6 -225 553 -238 609 -4 18 3 22 52 34 49 12 56 16 51 34
-3 12 -6 27 -6 34 0 9 -44 12 -185 12 l-185 0 0 -34z"/>
<path d="M19382 9808 c3 -31 6 -34 63 -49 l60 -16 0 -343 0 -343 -60 -16 c-59
-16 -60 -17 -60 -51 l0 -35 205 0 205 0 0 35 c0 34 -1 35 -62 49 l-63 14 0
394 0 393 -146 0 -145 0 3 -32z"/>
<path d="M21602 9808 c3 -31 6 -34 63 -49 l60 -16 0 -343 0 -343 -60 -16 c-59
-16 -60 -17 -60 -51 l0 -35 203 -3 202 -2 0 38 0 39 -60 13 -60 13 0 393 0
394 -146 0 -145 0 3 -32z"/>
</g>
</svg>
